REM DIRINDEX 1\2\4,1\2\5,1\2\6,1\3\7,1\3\8
REM DIRNAME cjc128,folder01,folder02,folder03,folder04,folder05,folder06,folder07
TITLE ""
FILE "035_Communication Stage 5.mp3" MP3
  TRACK 01 AUDIO
    TITLE "0:"
    INDEX 01 00:00:00
  TRACK 02 AUDIO
    TITLE "8:cjc128_3865"
    INDEX 01 00:00:09
  TRACK 03 AUDIO
    TITLE "0:"
    INDEX 01 00:02:53
  TRACK 04 AUDIO
    TITLE "8:cjc128_3866"
    INDEX 01 00:03:08
  TRACK 05 AUDIO
    TITLE "0:"
    INDEX 01 00:05:05
  TRACK 06 AUDIO
    TITLE "7:cjc128_3867"
    INDEX 01 00:05:57
  TRACK 07 AUDIO
    TITLE "0:"
    INDEX 01 00:08:26
  TRACK 08 AUDIO
    TITLE "8:cjc128_3868"
    INDEX 01 00:11:35
  TRACK 09 AUDIO
    TITLE "0:"
    INDEX 01 00:13:30
  TRACK 10 AUDIO
    TITLE "7:cjc128_3869"
    INDEX 01 00:14:19
  TRACK 11 AUDIO
    TITLE "0:"
    INDEX 01 00:17:27
  TRACK 12 AUDIO
    TITLE "8:cjc128_3870"
    INDEX 01 00:21:02
  TRACK 13 AUDIO
    TITLE "0:"
    INDEX 01 00:22:72
  TRACK 14 AUDIO
    TITLE "7:cjc128_3871"
    INDEX 01 00:23:53
  TRACK 15 AUDIO
    TITLE "0:"
    INDEX 01 00:26:20
  TRACK 16 AUDIO
    TITLE "8:cjc128_3872"
    INDEX 01 00:29:23
  TRACK 17 AUDIO
    TITLE "0:"
    INDEX 01 00:31:10
  TRACK 18 AUDIO
    TITLE "7:cjc128_3873"
    INDEX 01 00:31:63
  TRACK 19 AUDIO
    TITLE "0:"
    INDEX 01 00:33:22
  TRACK 20 AUDIO
    TITLE "8:cjc128_3874"
    INDEX 01 00:35:19
  TRACK 21 AUDIO
    TITLE "0:"
    INDEX 01 00:37:16
  TRACK 22 AUDIO
    TITLE "7:cjc128_3875"
    INDEX 01 00:37:65
  TRACK 23 AUDIO
    TITLE "0:"
    INDEX 01 00:40:46
  TRACK 24 AUDIO
    TITLE "8:cjc128_3876"
    INDEX 01 00:43:48
  TRACK 25 AUDIO
    TITLE "0:"
    INDEX 01 00:45:26
  TRACK 26 AUDIO
    TITLE "7:cjc128_3877"
    INDEX 01 00:46:09
  TRACK 27 AUDIO
    TITLE "0:"
    INDEX 01 00:49:35
  TRACK 28 AUDIO
    TITLE "8:cjc128_3878"
    INDEX 01 00:53:21
  TRACK 29 AUDIO
    TITLE "0:"
    INDEX 01 00:55:06
  TRACK 30 AUDIO
    TITLE "7:cjc128_3879"
    INDEX 01 00:55:61
  TRACK 31 AUDIO
    TITLE "0:"
    INDEX 01 00:59:49
  TRACK 32 AUDIO
    TITLE "8:cjc128_3880"
    INDEX 01 01:04:05
  TRACK 33 AUDIO
    TITLE "0:"
    INDEX 01 01:05:64
  TRACK 34 AUDIO
    TITLE "7:cjc128_3881"
    INDEX 01 01:06:43
  TRACK 35 AUDIO
    TITLE "0:"
    INDEX 01 01:08:72
  TRACK 36 AUDIO
    TITLE "8:cjc128_3882"
    INDEX 01 01:11:51
  TRACK 37 AUDIO
    TITLE "0:"
    INDEX 01 01:13:51
  TRACK 38 AUDIO
    TITLE "7:cjc128_3883"
    INDEX 01 01:14:29
  TRACK 39 AUDIO
    TITLE "0:"
    INDEX 01 01:16:16
  TRACK 40 AUDIO
    TITLE "8:cjc128_3884"
    INDEX 01 01:18:37
  TRACK 41 AUDIO
    TITLE "0:"
    INDEX 01 01:20:34
  TRACK 42 AUDIO
    TITLE "7:cjc128_3885"
    INDEX 01 01:21:18
  TRACK 43 AUDIO
    TITLE "0:"
    INDEX 01 01:24:04
  TRACK 44 AUDIO
    TITLE "8:cjc128_3886"
    INDEX 01 01:27:30
  TRACK 45 AUDIO
    TITLE "0:"
    INDEX 01 01:29:27
  TRACK 46 AUDIO
    TITLE "7:cjc128_3887"
    INDEX 01 01:30:03
  TRACK 47 AUDIO
    TITLE "0:"
    INDEX 01 01:33:31
  TRACK 48 AUDIO
    TITLE "8:cjc128_3888"
    INDEX 01 01:37:07
  TRACK 49 AUDIO
    TITLE "0:"
    INDEX 01 01:39:02
  TRACK 50 AUDIO
    TITLE "7:cjc128_3889"
    INDEX 01 01:39:59
  TRACK 51 AUDIO
    TITLE "0:"
    INDEX 01 01:44:50
  TRACK 52 AUDIO
    TITLE "8:cjc128_3890"
    INDEX 01 01:50:31
  TRACK 53 AUDIO
    TITLE "0:"
    INDEX 01 01:52:38
  TRACK 54 AUDIO
    TITLE "7:cjc128_3891"
    INDEX 01 01:53:16
  TRACK 55 AUDIO
    TITLE "0:"
    INDEX 01 01:55:69
  TRACK 56 AUDIO
    TITLE "8:cjc128_3892"
    INDEX 01 01:59:06
  TRACK 57 AUDIO
    TITLE "0:"
    INDEX 01 02:01:09
  TRACK 58 AUDIO
    TITLE "7:cjc128_3893"
    INDEX 01 02:01:56
  TRACK 59 AUDIO
    TITLE "0:"
    INDEX 01 02:05:19
